# MagicaVoxel @ Ephtracy

# group
g PackofPaper

# material
mtllib PackofPaper.mtl
usemtl palette

# normals
vn -1 0 0
vn 1 0 0
vn 0 0 1
vn 0 0 -1
vn 0 -1 0
vn 0 1 0

# texcoords
vt 0.177734 0.5
vt 0.205078 0.5
vt 0.240234 0.5

# verts
v -6 0 2
v -6 0 1
v -6 6 2
v -6 6 1
v -5 0 7
v -5 0 2
v -5 0 1
v -5 0 -4
v -5 1 -0
v -5 1 -4
v -5 2 5
v -5 2 3
v -5 2 -0
v -5 2 -4
v -5 3 5
v -5 3 3
v -5 4 7
v -5 4 5
v -5 4 -0
v -5 4 -3
v -5 5 7
v -5 5 5
v -5 5 -0
v -5 5 -3
v -5 6 7
v -5 6 2
v -5 6 1
v -5 6 -4
v -5 7 2
v -5 7 1
v -3 6 4
v -3 6 3
v -3 7 4
v -3 7 3
v -3 8 2
v -3 8 1
v -3 9 2
v -3 9 1
v -2 6 3
v -2 6 2
v -2 7 3
v -2 7 2
v -2 7 1
v -2 8 2
v -2 8 1
v -2 9 2
v -2 9 1
v -2 10 2
v -2 10 1
v 0 0 8
v 0 0 7
v 0 0 -4
v 0 0 -5
v 0 1 7
v 0 2 7
v 0 6 8
v 0 6 7
v 0 6 2
v 0 6 1
v 0 6 -0
v 0 6 -3
v 0 6 -4
v 0 6 -5
v 0 7 7
v 0 7 2
v 0 7 1
v 0 7 -4
v 0 9 2
v 0 9 1
v 1 9 2
v 1 9 1
v 1 10 2
v 1 10 1
v 2 6 4
v 2 6 3
v 2 7 4
v 2 7 3
v 2 7 2
v 2 7 1
v 2 8 2
v 2 8 1
v 3 8 2
v 3 8 1
v 3 9 2
v 3 9 1
v -2 6 4
v -2 6 3
v -2 7 4
v -2 7 3
v -2 8 2
v -2 8 1
v -2 9 2
v -2 9 1
v -1 6 3
v -1 6 2
v -1 7 3
v -1 7 2
v -1 7 1
v -1 8 2
v -1 8 1
v 0 9 2
v 0 9 1
v 0 10 2
v 0 10 1
v 1 0 8
v 1 0 7
v 1 0 -4
v 1 0 -5
v 1 1 -4
v 1 2 7
v 1 2 -4
v 1 3 7
v 1 4 -4
v 1 5 -4
v 1 6 8
v 1 6 7
v 1 6 3
v 1 6 1
v 1 6 -0
v 1 6 -3
v 1 6 -4
v 1 6 -5
v 1 7 7
v 1 7 3
v 1 7 2
v 1 7 1
v 1 7 -4
v 1 9 2
v 1 9 1
v 2 6 3
v 2 6 2
v 2 7 3
v 2 7 2
v 3 6 4
v 3 6 3
v 3 7 4
v 3 7 3
v 3 7 2
v 3 7 1
v 3 8 2
v 3 8 1
v 3 9 2
v 3 9 1
v 3 10 2
v 3 10 1
v 4 8 2
v 4 8 1
v 4 9 2
v 4 9 1
v 6 0 7
v 6 0 2
v 6 0 1
v 6 0 -1
v 6 0 -3
v 6 0 -4
v 6 1 5
v 6 1 2
v 6 1 -1
v 6 1 -3
v 6 2 5
v 6 2 2
v 6 3 1
v 6 3 -3
v 6 4 6
v 6 4 3
v 6 4 1
v 6 4 -3
v 6 5 6
v 6 5 3
v 6 6 7
v 6 6 2
v 6 6 1
v 6 6 -4
v 6 7 2
v 6 7 1
v 7 0 2
v 7 0 1
v 7 6 2
v 7 6 1
v 0 0 8
v 0 6 8
v 1 0 8
v 1 6 8
v -5 0 7
v -5 4 7
v -5 5 7
v -5 6 7
v -3 1 7
v -3 2 7
v -1 4 7
v -1 5 7
v 0 0 7
v 0 1 7
v 0 2 7
v 0 6 7
v 0 7 7
v 1 0 7
v 1 2 7
v 1 3 7
v 1 6 7
v 1 7 7
v 2 4 7
v 2 5 7
v 4 2 7
v 4 3 7
v 5 4 7
v 5 5 7
v 6 0 7
v 6 6 7
v -3 6 4
v -3 7 4
v -2 6 4
v -2 7 4
v 2 6 4
v 2 7 4
v 3 6 4
v 3 7 4
v -2 6 3
v -2 7 3
v -1 6 3
v -1 7 3
v 1 6 3
v 1 7 3
v 2 6 3
v 2 7 3
v -6 0 2
v -6 6 2
v -5 0 2
v -5 6 2
v -5 7 2
v -4 6 2
v -3 6 2
v -3 8 2
v -3 9 2
v -2 6 2
v -2 7 2
v -2 8 2
v -2 9 2
v -2 10 2
v -1 6 2
v -1 7 2
v -1 8 2
v 0 6 2
v 0 7 2
v 0 9 2
v 0 10 2
v 1 7 2
v 1 9 2
v 1 10 2
v 2 6 2
v 2 7 2
v 2 8 2
v 3 6 2
v 3 7 2
v 3 8 2
v 3 9 2
v 3 10 2
v 4 6 2
v 4 8 2
v 4 9 2
v 5 6 2
v 6 0 2
v 6 1 2
v 6 2 2
v 6 6 2
v 6 7 2
v 7 0 2
v 7 6 2
v -3 6 3
v -3 7 3
v -2 6 3
v -2 7 3
v 2 6 3
v 2 7 3
v 3 6 3
v 3 7 3
v -6 0 1
v -6 6 1
v -5 0 1
v -5 6 1
v -5 7 1
v -4 6 1
v -3 6 1
v -3 8 1
v -3 9 1
v -2 7 1
v -2 8 1
v -2 9 1
v -2 10 1
v -1 7 1
v -1 8 1
v 0 6 1
v 0 7 1
v 0 9 1
v 0 10 1
v 1 6 1
v 1 7 1
v 1 9 1
v 1 10 1
v 2 7 1
v 2 8 1
v 3 7 1
v 3 8 1
v 3 9 1
v 3 10 1
v 4 8 1
v 4 9 1
v 6 0 1
v 6 3 1
v 6 4 1
v 6 6 1
v 6 7 1
v 7 0 1
v 7 6 1
v -5 0 -4
v -5 1 -4
v -5 2 -4
v -5 6 -4
v -4 1 -4
v -4 2 -4
v -3 3 -4
v -3 4 -4
v -1 3 -4
v -1 4 -4
v 0 0 -4
v 0 6 -4
v 0 7 -4
v 1 0 -4
v 1 1 -4
v 1 2 -4
v 1 4 -4
v 1 5 -4
v 1 6 -4
v 1 7 -4
v 4 1 -4
v 4 2 -4
v 5 4 -4
v 5 5 -4
v 6 0 -4
v 6 6 -4
v 0 0 -5
v 0 6 -5
v 1 0 -5
v 1 6 -5
v 0 0 8
v 1 0 8
v -5 0 7
v 0 0 7
v 1 0 7
v 6 0 7
v -6 0 2
v -5 0 2
v 6 0 2
v 7 0 2
v -6 0 1
v -5 0 1
v 6 0 1
v 7 0 1
v 5 0 -1
v 6 0 -1
v 5 0 -3
v 6 0 -3
v -5 0 -4
v 0 0 -4
v 1 0 -4
v 6 0 -4
v 0 0 -5
v 1 0 -5
v -3 8 2
v -2 8 2
v 3 8 2
v 4 8 2
v -3 8 1
v -2 8 1
v 3 8 1
v 4 8 1
v -2 9 2
v 0 9 2
v 1 9 2
v 3 9 2
v -2 9 1
v 0 9 1
v 1 9 1
v 3 9 1
v 0 6 8
v 1 6 8
v -5 6 7
v 0 6 7
v 1 6 7
v 6 6 7
v -4 6 6
v -3 6 6
v -2 6 6
v -1 6 6
v 2 6 6
v 3 6 6
v 4 6 6
v 5 6 6
v -3 6 4
v -2 6 4
v 2 6 4
v 3 6 4
v -3 6 3
v -2 6 3
v -1 6 3
v 1 6 3
v 2 6 3
v 3 6 3
v -6 6 2
v -5 6 2
v -4 6 2
v -3 6 2
v -2 6 2
v -1 6 2
v 0 6 2
v 2 6 2
v 3 6 2
v 4 6 2
v 5 6 2
v 6 6 2
v 7 6 2
v -6 6 1
v -5 6 1
v -4 6 1
v -3 6 1
v 0 6 1
v 1 6 1
v 6 6 1
v 7 6 1
v -1 6 -0
v 0 6 -0
v 1 6 -0
v 5 6 -0
v -4 6 -3
v -3 6 -3
v -1 6 -3
v 0 6 -3
v 1 6 -3
v 5 6 -3
v -5 6 -4
v 0 6 -4
v 1 6 -4
v 6 6 -4
v 0 6 -5
v 1 6 -5
v 0 7 7
v 1 7 7
v -3 7 4
v -2 7 4
v 2 7 4
v 3 7 4
v -3 7 3
v -2 7 3
v -1 7 3
v 1 7 3
v 2 7 3
v 3 7 3
v -5 7 2
v -2 7 2
v -1 7 2
v 0 7 2
v 1 7 2
v 2 7 2
v 3 7 2
v 6 7 2
v -5 7 1
v -2 7 1
v -1 7 1
v 0 7 1
v 1 7 1
v 2 7 1
v 3 7 1
v 6 7 1
v 0 7 -4
v 1 7 -4
v -2 8 2
v -1 8 2
v 2 8 2
v 3 8 2
v -2 8 1
v -1 8 1
v 2 8 1
v 3 8 1
v -3 9 2
v -2 9 2
v 0 9 2
v 1 9 2
v 3 9 2
v 4 9 2
v -3 9 1
v -2 9 1
v 0 9 1
v 1 9 1
v 3 9 1
v 4 9 1
v -2 10 2
v 0 10 2
v 1 10 2
v 3 10 2
v -2 10 1
v 0 10 1
v 1 10 1
v 3 10 1

# faces
f 3/3/1 2/3/1 1/3/1
f 4/3/1 2/3/1 3/3/1
f 9/2/1 8/2/1 7/2/1
f 10/2/1 8/2/1 9/2/1
f 11/2/1 6/2/1 5/2/1
f 12/2/1 6/2/1 11/2/1
f 13/2/1 9/2/1 7/2/1
f 13/1/1 10/1/1 9/1/1
f 14/1/1 10/1/1 13/1/1
f 15/1/1 12/1/1 11/1/1
f 15/2/1 11/2/1 5/2/1
f 16/2/1 6/2/1 12/2/1
f 16/1/1 12/1/1 15/1/1
f 17/2/1 15/2/1 5/2/1
f 17/2/1 16/2/1 15/2/1
f 18/2/1 16/2/1 17/2/1
f 19/2/1 14/2/1 13/2/1
f 19/2/1 13/2/1 7/2/1
f 20/2/1 14/2/1 19/2/1
f 21/1/1 18/1/1 17/1/1
f 22/2/1 16/2/1 18/2/1
f 22/1/1 18/1/1 21/1/1
f 23/2/1 19/2/1 7/2/1
f 23/1/1 20/1/1 19/1/1
f 24/2/1 14/2/1 20/2/1
f 24/1/1 20/1/1 23/1/1
f 25/2/1 22/2/1 21/2/1
f 26/2/1 6/2/1 16/2/1
f 26/2/1 22/2/1 25/2/1
f 26/2/1 16/2/1 22/2/1
f 27/2/1 23/2/1 7/2/1
f 27/2/1 24/2/1 23/2/1
f 28/2/1 14/2/1 24/2/1
f 28/2/1 24/2/1 27/2/1
f 29/3/1 27/3/1 26/3/1
f 30/3/1 27/3/1 29/3/1
f 33/3/1 32/3/1 31/3/1
f 34/3/1 32/3/1 33/3/1
f 37/3/1 36/3/1 35/3/1
f 38/3/1 36/3/1 37/3/1
f 41/3/1 40/3/1 39/3/1
f 42/3/1 40/3/1 41/3/1
f 44/3/1 43/3/1 42/3/1
f 45/3/1 43/3/1 44/3/1
f 48/3/1 47/3/1 46/3/1
f 49/3/1 47/3/1 48/3/1
f 54/3/1 51/3/1 50/3/1
f 55/3/1 54/3/1 50/3/1
f 56/3/1 55/3/1 50/3/1
f 57/3/1 55/3/1 56/3/1
f 62/3/1 53/3/1 52/3/1
f 63/3/1 53/3/1 62/3/1
f 64/3/1 58/3/1 57/3/1
f 65/3/1 58/3/1 64/3/1
f 66/3/1 61/3/1 60/3/1
f 66/3/1 62/3/1 61/3/1
f 66/3/1 60/3/1 59/3/1
f 67/3/1 62/3/1 66/3/1
f 68/3/1 66/3/1 65/3/1
f 69/3/1 66/3/1 68/3/1
f 72/3/1 71/3/1 70/3/1
f 73/3/1 71/3/1 72/3/1
f 76/3/1 75/3/1 74/3/1
f 77/3/1 75/3/1 76/3/1
f 80/3/1 79/3/1 78/3/1
f 81/3/1 79/3/1 80/3/1
f 84/3/1 83/3/1 82/3/1
f 85/3/1 83/3/1 84/3/1
f 86/3/2 87/3/2 88/3/2
f 88/3/2 87/3/2 89/3/2
f 90/3/2 91/3/2 92/3/2
f 92/3/2 91/3/2 93/3/2
f 94/3/2 95/3/2 96/3/2
f 96/3/2 95/3/2 97/3/2
f 97/3/2 98/3/2 99/3/2
f 99/3/2 98/3/2 100/3/2
f 101/3/2 102/3/2 103/3/2
f 103/3/2 102/3/2 104/3/2
f 107/3/2 108/3/2 109/3/2
f 105/3/2 106/3/2 110/3/2
f 109/3/2 108/3/2 111/3/2
f 105/3/2 110/3/2 112/3/2
f 111/3/2 108/3/2 113/3/2
f 113/3/2 108/3/2 114/3/2
f 105/3/2 112/3/2 115/3/2
f 115/3/2 112/3/2 116/3/2
f 114/3/2 108/3/2 121/3/2
f 121/3/2 108/3/2 122/3/2
f 116/3/2 117/3/2 123/3/2
f 123/3/2 117/3/2 124/3/2
f 119/3/2 120/3/2 126/3/2
f 120/3/2 121/3/2 126/3/2
f 118/3/2 119/3/2 126/3/2
f 126/3/2 121/3/2 127/3/2
f 125/3/2 126/3/2 128/3/2
f 128/3/2 126/3/2 129/3/2
f 130/3/2 131/3/2 132/3/2
f 132/3/2 131/3/2 133/3/2
f 134/3/2 135/3/2 136/3/2
f 136/3/2 135/3/2 137/3/2
f 138/3/2 139/3/2 140/3/2
f 140/3/2 139/3/2 141/3/2
f 142/3/2 143/3/2 144/3/2
f 144/3/2 143/3/2 145/3/2
f 146/3/2 147/3/2 148/3/2
f 148/3/2 147/3/2 149/3/2
f 150/2/2 151/2/2 156/2/2
f 156/2/2 151/2/2 157/2/2
f 152/2/2 153/2/2 158/2/2
f 153/1/2 154/1/2 158/1/2
f 154/2/2 155/2/2 159/2/2
f 158/1/2 154/1/2 159/1/2
f 156/1/2 157/1/2 160/1/2
f 150/2/2 156/2/2 160/2/2
f 160/1/2 157/1/2 161/1/2
f 152/2/2 158/2/2 162/2/2
f 158/2/2 159/2/2 162/2/2
f 159/2/2 155/2/2 163/2/2
f 162/2/2 159/2/2 163/2/2
f 160/2/2 161/2/2 164/2/2
f 150/2/2 160/2/2 164/2/2
f 164/2/2 161/2/2 165/2/2
f 162/1/2 163/1/2 166/1/2
f 163/2/2 155/2/2 167/2/2
f 166/1/2 163/1/2 167/1/2
f 150/2/2 164/2/2 168/2/2
f 164/1/2 165/1/2 168/1/2
f 165/2/2 161/2/2 169/2/2
f 168/1/2 165/1/2 169/1/2
f 150/2/2 168/2/2 170/2/2
f 168/2/2 169/2/2 170/2/2
f 169/2/2 161/2/2 171/2/2
f 170/2/2 169/2/2 171/2/2
f 166/2/2 167/2/2 172/2/2
f 167/2/2 155/2/2 173/2/2
f 172/2/2 167/2/2 173/2/2
f 171/3/2 172/3/2 174/3/2
f 174/3/2 172/3/2 175/3/2
f 176/3/2 177/3/2 178/3/2
f 178/3/2 177/3/2 179/3/2
f 182/3/3 181/3/3 180/3/3
f 183/3/3 181/3/3 182/3/3
f 188/2/3 185/2/3 184/2/3
f 189/2/3 185/2/3 188/2/3
f 190/1/3 186/1/3 185/1/3
f 190/2/3 185/2/3 189/2/3
f 191/2/3 187/2/3 186/2/3
f 191/1/3 186/1/3 190/1/3
f 192/2/3 188/2/3 184/2/3
f 193/1/3 189/1/3 188/1/3
f 193/2/3 188/2/3 192/2/3
f 194/2/3 190/2/3 189/2/3
f 194/1/3 189/1/3 193/1/3
f 194/2/3 191/2/3 190/2/3
f 195/2/3 187/2/3 191/2/3
f 195/2/3 191/2/3 194/2/3
f 200/3/3 196/3/3 195/3/3
f 201/3/3 196/3/3 200/3/3
f 202/2/3 200/2/3 199/2/3
f 203/2/3 200/2/3 202/2/3
f 204/1/3 199/1/3 198/1/3
f 204/2/3 198/2/3 197/2/3
f 205/2/3 202/2/3 199/2/3
f 205/1/3 199/1/3 204/1/3
f 206/1/3 203/1/3 202/1/3
f 206/2/3 202/2/3 205/2/3
f 206/2/3 205/2/3 204/2/3
f 207/2/3 200/2/3 203/2/3
f 207/1/3 203/1/3 206/1/3
f 208/2/3 206/2/3 204/2/3
f 208/2/3 204/2/3 197/2/3
f 208/2/3 207/2/3 206/2/3
f 209/2/3 200/2/3 207/2/3
f 209/2/3 207/2/3 208/2/3
f 212/3/3 211/3/3 210/3/3
f 213/3/3 211/3/3 212/3/3
f 216/3/3 215/3/3 214/3/3
f 217/3/3 215/3/3 216/3/3
f 220/3/3 219/3/3 218/3/3
f 221/3/3 219/3/3 220/3/3
f 224/3/3 223/3/3 222/3/3
f 225/3/3 223/3/3 224/3/3
f 228/3/3 227/3/3 226/3/3
f 229/3/3 227/3/3 228/3/3
f 231/3/3 230/3/3 229/3/3
f 232/3/3 230/3/3 231/3/3
f 235/3/3 230/3/3 232/3/3
f 236/3/3 230/3/3 235/3/3
f 237/3/3 234/3/3 233/3/3
f 238/3/3 234/3/3 237/3/3
f 241/3/3 237/3/3 236/3/3
f 242/3/3 237/3/3 241/3/3
f 243/3/3 241/3/3 240/3/3
f 244/3/3 241/3/3 243/3/3
f 245/3/3 239/3/3 238/3/3
f 246/3/3 239/3/3 245/3/3
f 247/3/3 245/3/3 244/3/3
f 248/3/3 245/3/3 247/3/3
f 253/3/3 251/3/3 250/3/3
f 253/3/3 252/3/3 251/3/3
f 254/3/3 252/3/3 253/3/3
f 255/3/3 252/3/3 254/3/3
f 256/3/3 249/3/3 248/3/3
f 257/3/3 249/3/3 256/3/3
f 258/3/3 254/3/3 253/3/3
f 259/3/3 256/3/3 255/3/3
f 260/3/3 256/3/3 259/3/3
f 261/3/3 254/3/3 258/3/3
f 265/3/3 254/3/3 261/3/3
f 266/3/3 254/3/3 265/3/3
f 267/3/3 264/3/3 263/3/3
f 267/3/3 263/3/3 262/3/3
f 267/3/3 265/3/3 264/3/3
f 268/3/3 265/3/3 267/3/3
f 269/3/4 270/3/4 271/3/4
f 271/3/4 270/3/4 272/3/4
f 273/3/4 274/3/4 275/3/4
f 275/3/4 274/3/4 276/3/4
f 277/3/4 278/3/4 279/3/4
f 279/3/4 278/3/4 280/3/4
f 280/3/4 281/3/4 282/3/4
f 282/3/4 281/3/4 283/3/4
f 283/3/4 281/3/4 286/3/4
f 284/3/4 285/3/4 287/3/4
f 287/3/4 285/3/4 288/3/4
f 283/3/4 286/3/4 290/3/4
f 286/3/4 287/3/4 290/3/4
f 290/3/4 287/3/4 291/3/4
f 283/3/4 290/3/4 292/3/4
f 292/3/4 290/3/4 293/3/4
f 288/3/4 289/3/4 294/3/4
f 294/3/4 289/3/4 295/3/4
f 293/3/4 294/3/4 297/3/4
f 297/3/4 294/3/4 298/3/4
f 296/3/4 297/3/4 300/3/4
f 296/3/4 300/3/4 302/3/4
f 300/3/4 301/3/4 302/3/4
f 302/3/4 301/3/4 303/3/4
f 298/3/4 299/3/4 304/3/4
f 304/3/4 299/3/4 305/3/4
f 303/3/4 304/3/4 306/3/4
f 306/3/4 304/3/4 307/3/4
f 296/3/4 302/3/4 311/3/4
f 311/3/4 302/3/4 312/3/4
f 309/3/4 310/3/4 313/3/4
f 308/3/4 309/3/4 313/3/4
f 310/3/4 311/3/4 313/3/4
f 313/3/4 311/3/4 314/3/4
f 315/2/4 316/2/4 319/2/4
f 316/1/4 317/1/4 319/1/4
f 317/2/4 318/2/4 320/2/4
f 319/1/4 317/1/4 320/1/4
f 319/2/4 320/2/4 321/2/4
f 320/2/4 318/2/4 321/2/4
f 321/2/4 318/2/4 322/2/4
f 319/2/4 321/2/4 323/2/4
f 321/1/4 322/1/4 323/1/4
f 322/2/4 318/2/4 324/2/4
f 323/1/4 322/1/4 324/1/4
f 315/2/4 319/2/4 325/2/4
f 319/2/4 323/2/4 325/2/4
f 323/2/4 324/2/4 325/2/4
f 324/2/4 318/2/4 326/2/4
f 325/2/4 324/2/4 326/2/4
f 326/3/4 327/3/4 333/3/4
f 333/3/4 327/3/4 334/3/4
f 328/2/4 329/2/4 335/2/4
f 329/1/4 330/1/4 335/1/4
f 330/2/4 331/2/4 336/2/4
f 335/1/4 330/1/4 336/1/4
f 331/1/4 332/1/4 337/1/4
f 336/2/4 331/2/4 337/2/4
f 335/2/4 336/2/4 337/2/4
f 332/2/4 333/2/4 338/2/4
f 337/1/4 332/1/4 338/1/4
f 335/2/4 337/2/4 339/2/4
f 328/2/4 335/2/4 339/2/4
f 337/2/4 338/2/4 339/2/4
f 338/2/4 333/2/4 340/2/4
f 339/2/4 338/2/4 340/2/4
f 341/3/4 342/3/4 343/3/4
f 343/3/4 342/3/4 344/3/4
f 348/3/5 346/3/5 345/3/5
f 349/3/5 346/3/5 348/3/5
f 352/2/5 348/2/5 347/2/5
f 352/2/5 350/2/5 349/2/5
f 352/2/5 349/2/5 348/2/5
f 353/2/5 350/2/5 352/2/5
f 355/3/5 352/3/5 351/3/5
f 356/2/5 353/2/5 352/2/5
f 356/3/5 352/3/5 355/3/5
f 357/3/5 354/3/5 353/3/5
f 357/2/5 353/2/5 356/2/5
f 358/3/5 354/3/5 357/3/5
f 359/2/5 357/2/5 356/2/5
f 360/2/5 357/2/5 359/2/5
f 361/2/5 359/2/5 356/2/5
f 361/1/5 360/1/5 359/1/5
f 362/1/5 360/1/5 361/1/5
f 363/2/5 361/2/5 356/2/5
f 363/2/5 362/2/5 361/2/5
f 364/2/5 362/2/5 363/2/5
f 365/2/5 362/2/5 364/2/5
f 366/2/5 362/2/5 365/2/5
f 367/3/5 365/3/5 364/3/5
f 368/3/5 365/3/5 367/3/5
f 373/3/5 370/3/5 369/3/5
f 374/3/5 370/3/5 373/3/5
f 375/3/5 372/3/5 371/3/5
f 376/3/5 372/3/5 375/3/5
f 381/3/5 378/3/5 377/3/5
f 382/3/5 378/3/5 381/3/5
f 383/3/5 380/3/5 379/3/5
f 384/3/5 380/3/5 383/3/5
f 385/3/6 386/3/6 388/3/6
f 388/3/6 386/3/6 389/3/6
f 387/2/6 388/2/6 391/2/6
f 391/2/6 388/2/6 392/2/6
f 392/2/6 388/2/6 393/2/6
f 393/2/6 388/2/6 394/2/6
f 389/2/6 390/2/6 395/2/6
f 395/2/6 390/2/6 396/2/6
f 396/2/6 390/2/6 397/2/6
f 397/2/6 390/2/6 398/2/6
f 391/1/6 392/1/6 399/1/6
f 392/2/6 393/2/6 399/2/6
f 393/1/6 394/1/6 400/1/6
f 399/2/6 393/2/6 400/2/6
f 389/2/6 395/2/6 401/2/6
f 395/1/6 396/1/6 401/1/6
f 396/2/6 397/2/6 402/2/6
f 401/1/6 396/1/6 402/1/6
f 391/1/6 399/1/6 403/1/6
f 400/1/6 394/1/6 404/1/6
f 394/2/6 388/2/6 405/2/6
f 404/1/6 394/1/6 405/1/6
f 389/2/6 401/2/6 406/2/6
f 406/2/6 401/2/6 407/2/6
f 402/2/6 397/2/6 408/2/6
f 387/2/6 391/2/6 410/2/6
f 391/1/6 403/1/6 411/1/6
f 410/2/6 391/2/6 411/2/6
f 403/2/6 404/2/6 412/2/6
f 411/1/6 403/1/6 412/1/6
f 412/2/6 404/2/6 413/2/6
f 405/2/6 388/2/6 414/2/6
f 414/2/6 388/2/6 415/2/6
f 407/1/6 408/1/6 416/1/6
f 408/2/6 397/2/6 417/2/6
f 416/1/6 408/1/6 417/1/6
f 397/1/6 398/1/6 418/1/6
f 417/2/6 397/2/6 418/2/6
f 398/2/6 390/2/6 419/2/6
f 418/1/6 398/1/6 419/1/6
f 419/2/6 390/2/6 420/2/6
f 409/3/6 410/3/6 422/3/6
f 422/3/6 410/3/6 423/3/6
f 420/3/6 421/3/6 428/3/6
f 428/3/6 421/3/6 429/3/6
f 425/2/6 426/2/6 430/2/6
f 430/2/6 426/2/6 431/2/6
f 427/2/6 428/2/6 432/2/6
f 432/2/6 428/2/6 433/2/6
f 423/2/6 424/2/6 434/2/6
f 424/1/6 425/1/6 434/1/6
f 425/2/6 430/2/6 435/2/6
f 434/1/6 425/1/6 435/1/6
f 430/1/6 431/1/6 436/1/6
f 435/2/6 430/2/6 436/2/6
f 436/1/6 431/1/6 437/1/6
f 432/1/6 433/1/6 438/1/6
f 433/2/6 428/2/6 439/2/6
f 438/1/6 433/1/6 439/1/6
f 434/2/6 435/2/6 440/2/6
f 436/2/6 437/2/6 440/2/6
f 423/2/6 434/2/6 440/2/6
f 435/2/6 436/2/6 440/2/6
f 440/2/6 437/2/6 441/2/6
f 438/2/6 439/2/6 442/2/6
f 439/2/6 428/2/6 443/2/6
f 442/2/6 439/2/6 443/2/6
f 441/3/6 442/3/6 444/3/6
f 444/3/6 442/3/6 445/3/6
f 448/3/6 449/3/6 452/3/6
f 452/3/6 449/3/6 453/3/6
f 446/3/6 447/3/6 455/3/6
f 450/3/6 451/3/6 456/3/6
f 456/3/6 451/3/6 457/3/6
f 453/3/6 454/3/6 459/3/6
f 459/3/6 454/3/6 460/3/6
f 455/3/6 456/3/6 461/3/6
f 446/3/6 455/3/6 461/3/6
f 461/3/6 456/3/6 462/3/6
f 462/3/6 456/3/6 463/3/6
f 458/3/6 459/3/6 466/3/6
f 466/3/6 459/3/6 467/3/6
f 460/3/6 461/3/6 468/3/6
f 468/3/6 461/3/6 469/3/6
f 462/3/6 463/3/6 470/3/6
f 470/3/6 463/3/6 471/3/6
f 464/3/6 465/3/6 472/3/6
f 472/3/6 465/3/6 473/3/6
f 469/3/6 470/3/6 474/3/6
f 474/3/6 470/3/6 475/3/6
f 476/3/6 477/3/6 480/3/6
f 480/3/6 477/3/6 481/3/6
f 478/3/6 479/3/6 482/3/6
f 482/3/6 479/3/6 483/3/6
f 484/3/6 485/3/6 490/3/6
f 490/3/6 485/3/6 491/3/6
f 486/3/6 487/3/6 492/3/6
f 492/3/6 487/3/6 493/3/6
f 488/3/6 489/3/6 494/3/6
f 494/3/6 489/3/6 495/3/6
f 496/3/6 497/3/6 500/3/6
f 500/3/6 497/3/6 501/3/6
f 498/3/6 499/3/6 502/3/6
f 502/3/6 499/3/6 503/3/6
