# MagicaVoxel @ Ephtracy

# group
g Shovel

# material
mtllib Shovel.mtl
usemtl palette

# normals
vn -1 0 0
vn 1 0 0
vn 0 0 1
vn 0 0 -1
vn 0 -1 0
vn 0 1 0

# texcoords
vt 0.166016 0.5
vt 0.205078 0.5
vt 0.240234 0.5

# verts
v -5 8 3
v -5 8 1
v -5 13 3
v -5 13 1
v -4 5 3
v -4 5 1
v -4 8 3
v -4 8 1
v -4 8 -0
v -4 13 1
v -4 13 -0
v -3 3 3
v -3 3 1
v -3 5 3
v -3 5 1
v -3 6 1
v -3 6 -0
v -3 8 1
v -3 8 -0
v -3 10 -0
v -3 10 -1
v -3 13 -0
v -3 13 -1
v -2 2 3
v -2 2 1
v -2 3 3
v -2 3 1
v -2 4 1
v -2 4 -0
v -2 6 1
v -2 6 -0
v -2 7 -0
v -2 7 -1
v -2 10 -0
v -2 10 -1
v -2 29 2
v -2 29 -0
v -2 33 2
v -2 33 -0
v -1 1 3
v -1 1 1
v -1 2 3
v -1 2 1
v -1 2 -0
v -1 4 1
v -1 4 -0
v -1 5 -0
v -1 5 -1
v -1 7 -0
v -1 7 -1
v 0 0 3
v 0 0 1
v 0 1 3
v 0 1 1
v 0 1 -0
v 0 2 1
v 0 2 -0
v 0 4 -0
v 0 4 -1
v 0 5 -0
v 0 5 -1
v 1 13 2
v 1 13 -0
v 1 29 2
v 1 29 -0
v 3 2 3
v 3 2 2
v 3 3 3
v 3 3 2
v 4 3 3
v 4 3 2
v 4 4 3
v 4 4 2
v 4 30 2
v 4 30 -0
v 4 32 2
v 4 32 1
v 4 33 1
v 4 33 -0
v 5 4 3
v 5 4 2
v 5 6 3
v 5 6 2
v 6 6 3
v 6 6 2
v 6 8 3
v 6 8 2
v 7 8 3
v 7 8 2
v 7 13 3
v 7 13 2
v -4 8 3
v -4 8 2
v -4 13 3
v -4 13 2
v -3 6 3
v -3 6 2
v -3 8 3
v -3 8 2
v -2 4 3
v -2 4 2
v -2 6 3
v -2 6 2
v -1 3 3
v -1 3 2
v -1 4 3
v -1 4 2
v -1 30 2
v -1 30 -0
v -1 32 2
v -1 32 1
v -1 33 1
v -1 33 -0
v 0 2 3
v 0 2 2
v 0 3 3
v 0 3 2
v 2 13 2
v 2 13 -0
v 2 29 2
v 2 29 -0
v 3 0 3
v 3 0 1
v 3 1 3
v 3 1 1
v 3 1 -0
v 3 2 1
v 3 2 -0
v 3 4 -0
v 3 4 -1
v 3 6 -0
v 3 6 -1
v 4 1 3
v 4 1 1
v 4 2 3
v 4 2 1
v 4 2 -0
v 4 4 1
v 4 4 -0
v 4 6 -0
v 4 6 -1
v 4 8 -0
v 4 8 -1
v 5 2 3
v 5 2 1
v 5 4 3
v 5 4 1
v 5 4 -0
v 5 6 1
v 5 6 -0
v 5 8 -0
v 5 8 -1
v 5 13 -0
v 5 13 -1
v 5 29 2
v 5 29 -0
v 5 33 2
v 5 33 -0
v 6 4 3
v 6 4 1
v 6 6 3
v 6 6 1
v 6 6 -0
v 6 9 1
v 6 9 -0
v 7 6 3
v 7 6 1
v 7 8 3
v 7 8 1
v 7 9 1
v 7 9 -0
v 7 13 1
v 7 13 -0
v 8 8 3
v 8 8 1
v 8 13 3
v 8 13 1
v -5 8 3
v -5 13 3
v -4 5 3
v -4 8 3
v -4 13 3
v -3 3 3
v -3 5 3
v -3 6 3
v -3 8 3
v -2 2 3
v -2 3 3
v -2 4 3
v -2 6 3
v -1 1 3
v -1 2 3
v -1 3 3
v -1 4 3
v 0 0 3
v 0 1 3
v 0 2 3
v 0 3 3
v 3 0 3
v 3 1 3
v 3 2 3
v 3 3 3
v 4 1 3
v 4 2 3
v 4 3 3
v 4 4 3
v 5 2 3
v 5 4 3
v 5 6 3
v 6 4 3
v 6 6 3
v 6 8 3
v 7 6 3
v 7 8 3
v 7 13 3
v 8 8 3
v 8 13 3
v -4 8 2
v -4 13 2
v -3 6 2
v -3 8 2
v -2 4 2
v -2 6 2
v -2 29 2
v -2 33 2
v -1 3 2
v -1 4 2
v -1 30 2
v -1 32 2
v -1 33 2
v 0 2 2
v 0 3 2
v 1 13 2
v 1 29 2
v 2 13 2
v 2 29 2
v 3 2 2
v 3 3 2
v 4 3 2
v 4 4 2
v 4 30 2
v 4 32 2
v 4 33 2
v 5 4 2
v 5 6 2
v 5 29 2
v 5 33 2
v 6 6 2
v 6 8 2
v 7 8 2
v 7 13 2
v -5 8 1
v -5 13 1
v -4 5 1
v -4 8 1
v -4 13 1
v -3 3 1
v -3 5 1
v -3 6 1
v -3 8 1
v -2 2 1
v -2 3 1
v -2 4 1
v -2 6 1
v -1 1 1
v -1 2 1
v -1 4 1
v -1 32 1
v -1 33 1
v 0 0 1
v 0 1 1
v 0 2 1
v 3 0 1
v 3 1 1
v 3 2 1
v 4 1 1
v 4 2 1
v 4 4 1
v 4 32 1
v 4 33 1
v 5 2 1
v 5 4 1
v 5 6 1
v 6 4 1
v 6 6 1
v 6 9 1
v 7 6 1
v 7 8 1
v 7 9 1
v 7 13 1
v 8 8 1
v 8 13 1
v -4 8 -0
v -4 13 -0
v -3 6 -0
v -3 8 -0
v -3 10 -0
v -3 13 -0
v -2 4 -0
v -2 6 -0
v -2 7 -0
v -2 10 -0
v -2 29 -0
v -2 33 -0
v -1 2 -0
v -1 4 -0
v -1 5 -0
v -1 7 -0
v -1 30 -0
v -1 33 -0
v 0 1 -0
v 0 2 -0
v 0 4 -0
v 0 5 -0
v 1 13 -0
v 1 29 -0
v 2 13 -0
v 2 29 -0
v 3 1 -0
v 3 2 -0
v 3 4 -0
v 3 6 -0
v 4 2 -0
v 4 4 -0
v 4 6 -0
v 4 8 -0
v 4 30 -0
v 4 33 -0
v 5 4 -0
v 5 6 -0
v 5 8 -0
v 5 13 -0
v 5 29 -0
v 5 33 -0
v 6 6 -0
v 6 9 -0
v 7 9 -0
v 7 13 -0
v -3 10 -1
v -3 13 -1
v -2 7 -1
v -2 10 -1
v -1 5 -1
v -1 7 -1
v 0 4 -1
v 0 5 -1
v 3 4 -1
v 3 6 -1
v 4 6 -1
v 4 8 -1
v 5 8 -1
v 5 13 -1
v 0 0 3
v 3 0 3
v 0 0 1
v 3 0 1
v -1 1 3
v 0 1 3
v 3 1 3
v 4 1 3
v -1 1 1
v 0 1 1
v 3 1 1
v 4 1 1
v 0 1 -0
v 3 1 -0
v -2 2 3
v -1 2 3
v 4 2 3
v 5 2 3
v -2 2 1
v -1 2 1
v 0 2 1
v 3 2 1
v 4 2 1
v 5 2 1
v -1 2 -0
v 0 2 -0
v 3 2 -0
v 4 2 -0
v -3 3 3
v -2 3 3
v -3 3 1
v -2 3 1
v 5 4 3
v 6 4 3
v -2 4 1
v -1 4 1
v 4 4 1
v 5 4 1
v 6 4 1
v -2 4 -0
v -1 4 -0
v 0 4 -0
v 3 4 -0
v 4 4 -0
v 5 4 -0
v 0 4 -1
v 3 4 -1
v -4 5 3
v -3 5 3
v -4 5 1
v -3 5 1
v -1 5 -0
v 0 5 -0
v -1 5 -1
v 0 5 -1
v 6 6 3
v 7 6 3
v -3 6 1
v -2 6 1
v 5 6 1
v 6 6 1
v 7 6 1
v -3 6 -0
v -2 6 -0
v 3 6 -0
v 4 6 -0
v 5 6 -0
v 6 6 -0
v 3 6 -1
v 4 6 -1
v -2 7 -0
v -1 7 -0
v -2 7 -1
v -1 7 -1
v -5 8 3
v -4 8 3
v 7 8 3
v 8 8 3
v -5 8 1
v -4 8 1
v -3 8 1
v 7 8 1
v 8 8 1
v -4 8 -0
v -3 8 -0
v 4 8 -0
v 5 8 -0
v 4 8 -1
v 5 8 -1
v 6 9 1
v 7 9 1
v 6 9 -0
v 7 9 -0
v -3 10 -0
v -2 10 -0
v -3 10 -1
v -2 10 -1
v -2 29 2
v 1 29 2
v 2 29 2
v 5 29 2
v -2 29 -0
v 1 29 -0
v 2 29 -0
v 5 29 -0
v -1 32 2
v 4 32 2
v -1 32 1
v 4 32 1
v 0 2 3
v 3 2 3
v 0 2 2
v 3 2 2
v -1 3 3
v 0 3 3
v 3 3 3
v 4 3 3
v -1 3 2
v 0 3 2
v 3 3 2
v 4 3 2
v -2 4 3
v -1 4 3
v 4 4 3
v 5 4 3
v -2 4 2
v -1 4 2
v 4 4 2
v 5 4 2
v -3 6 3
v -2 6 3
v 5 6 3
v 6 6 3
v -3 6 2
v -2 6 2
v 5 6 2
v 6 6 2
v -4 8 3
v -3 8 3
v 6 8 3
v 7 8 3
v -4 8 2
v -3 8 2
v 6 8 2
v 7 8 2
v -5 13 3
v -4 13 3
v 7 13 3
v 8 13 3
v -4 13 2
v 1 13 2
v 2 13 2
v 7 13 2
v -5 13 1
v -4 13 1
v 7 13 1
v 8 13 1
v -4 13 -0
v -3 13 -0
v 1 13 -0
v 2 13 -0
v 5 13 -0
v 7 13 -0
v -3 13 -1
v 5 13 -1
v -1 30 2
v 4 30 2
v -1 30 -0
v 4 30 -0
v -2 33 2
v -1 33 2
v 4 33 2
v 5 33 2
v -1 33 1
v 4 33 1
v -2 33 -0
v -1 33 -0
v 4 33 -0
v 5 33 -0

# faces
f 3/2/1 2/2/1 1/2/1
f 4/2/1 2/2/1 3/2/1
f 7/2/1 6/2/1 5/2/1
f 8/2/1 6/2/1 7/2/1
f 10/2/1 9/2/1 8/2/1
f 11/2/1 9/2/1 10/2/1
f 14/2/1 13/2/1 12/2/1
f 15/2/1 13/2/1 14/2/1
f 18/2/1 17/2/1 16/2/1
f 19/2/1 17/2/1 18/2/1
f 22/2/1 21/2/1 20/2/1
f 23/2/1 21/2/1 22/2/1
f 26/2/1 25/2/1 24/2/1
f 27/2/1 25/2/1 26/2/1
f 30/2/1 29/2/1 28/2/1
f 31/2/1 29/2/1 30/2/1
f 34/2/1 33/2/1 32/2/1
f 35/2/1 33/2/1 34/2/1
f 38/2/1 37/2/1 36/2/1
f 39/2/1 37/2/1 38/2/1
f 42/2/1 41/2/1 40/2/1
f 43/2/1 41/2/1 42/2/1
f 45/2/1 44/2/1 43/2/1
f 46/2/1 44/2/1 45/2/1
f 49/2/1 48/2/1 47/2/1
f 50/2/1 48/2/1 49/2/1
f 53/2/1 52/2/1 51/2/1
f 54/2/1 52/2/1 53/2/1
f 56/2/1 55/2/1 54/2/1
f 57/2/1 55/2/1 56/2/1
f 60/2/1 59/2/1 58/2/1
f 61/2/1 59/2/1 60/2/1
f 64/3/1 63/3/1 62/3/1
f 65/3/1 63/3/1 64/3/1
f 68/2/1 67/2/1 66/2/1
f 69/2/1 67/2/1 68/2/1
f 72/2/1 71/2/1 70/2/1
f 73/2/1 71/2/1 72/2/1
f 76/2/1 75/2/1 74/2/1
f 77/2/1 75/2/1 76/2/1
f 78/2/1 75/2/1 77/2/1
f 79/2/1 75/2/1 78/2/1
f 82/2/1 81/2/1 80/2/1
f 83/2/1 81/2/1 82/2/1
f 86/2/1 85/2/1 84/2/1
f 87/2/1 85/2/1 86/2/1
f 90/2/1 89/2/1 88/2/1
f 91/2/1 89/2/1 90/2/1
f 92/2/2 93/2/2 94/2/2
f 94/2/2 93/2/2 95/2/2
f 96/2/2 97/2/2 98/2/2
f 98/2/2 97/2/2 99/2/2
f 100/2/2 101/2/2 102/2/2
f 102/2/2 101/2/2 103/2/2
f 104/2/2 105/2/2 106/2/2
f 106/2/2 105/2/2 107/2/2
f 108/2/2 109/2/2 110/2/2
f 110/2/2 109/2/2 111/2/2
f 111/2/2 109/2/2 112/2/2
f 112/2/2 109/2/2 113/2/2
f 114/2/2 115/2/2 116/2/2
f 116/2/2 115/2/2 117/2/2
f 118/3/2 119/3/2 120/3/2
f 120/3/2 119/3/2 121/3/2
f 122/2/2 123/2/2 124/2/2
f 124/2/2 123/2/2 125/2/2
f 125/2/2 126/2/2 127/2/2
f 127/2/2 126/2/2 128/2/2
f 129/2/2 130/2/2 131/2/2
f 131/2/2 130/2/2 132/2/2
f 133/2/2 134/2/2 135/2/2
f 135/2/2 134/2/2 136/2/2
f 136/2/2 137/2/2 138/2/2
f 138/2/2 137/2/2 139/2/2
f 140/2/2 141/2/2 142/2/2
f 142/2/2 141/2/2 143/2/2
f 144/2/2 145/2/2 146/2/2
f 146/2/2 145/2/2 147/2/2
f 147/2/2 148/2/2 149/2/2
f 149/2/2 148/2/2 150/2/2
f 151/2/2 152/2/2 153/2/2
f 153/2/2 152/2/2 154/2/2
f 155/2/2 156/2/2 157/2/2
f 157/2/2 156/2/2 158/2/2
f 159/2/2 160/2/2 161/2/2
f 161/2/2 160/2/2 162/2/2
f 162/2/2 163/2/2 164/2/2
f 164/2/2 163/2/2 165/2/2
f 166/2/2 167/2/2 168/2/2
f 168/2/2 167/2/2 169/2/2
f 170/2/2 171/2/2 172/2/2
f 172/2/2 171/2/2 173/2/2
f 174/2/2 175/2/2 176/2/2
f 176/2/2 175/2/2 177/2/2
f 181/2/3 179/2/3 178/2/3
f 182/2/3 179/2/3 181/2/3
f 184/2/3 181/2/3 180/2/3
f 185/2/3 181/2/3 184/2/3
f 186/2/3 181/2/3 185/2/3
f 188/2/3 184/2/3 183/2/3
f 188/2/3 185/2/3 184/2/3
f 189/2/3 185/2/3 188/2/3
f 190/2/3 185/2/3 189/2/3
f 192/2/3 188/2/3 187/2/3
f 192/2/3 189/2/3 188/2/3
f 193/2/3 189/2/3 192/2/3
f 194/2/3 189/2/3 193/2/3
f 196/2/3 192/2/3 191/2/3
f 196/2/3 193/2/3 192/2/3
f 197/2/3 193/2/3 196/2/3
f 198/2/3 193/2/3 197/2/3
f 199/2/3 196/2/3 195/2/3
f 199/2/3 197/2/3 196/2/3
f 200/2/3 197/2/3 199/2/3
f 201/2/3 197/2/3 200/2/3
f 203/2/3 202/2/3 201/2/3
f 203/2/3 201/2/3 200/2/3
f 204/2/3 202/2/3 203/2/3
f 205/2/3 202/2/3 204/2/3
f 207/2/3 205/2/3 204/2/3
f 207/2/3 206/2/3 205/2/3
f 208/2/3 206/2/3 207/2/3
f 210/2/3 209/2/3 208/2/3
f 211/2/3 209/2/3 210/2/3
f 213/2/3 212/2/3 211/2/3
f 214/2/3 212/2/3 213/2/3
f 216/2/3 215/2/3 214/2/3
f 217/2/3 215/2/3 216/2/3
f 221/2/3 219/2/3 218/2/3
f 223/2/3 221/2/3 220/2/3
f 227/2/3 223/2/3 222/2/3
f 228/2/3 225/2/3 224/2/3
f 229/2/3 225/2/3 228/2/3
f 230/2/3 225/2/3 229/2/3
f 232/2/3 227/2/3 226/2/3
f 233/2/3 219/2/3 221/2/3
f 233/2/3 232/2/3 231/2/3
f 233/2/3 227/2/3 232/2/3
f 233/2/3 221/2/3 223/2/3
f 233/2/3 223/2/3 227/2/3
f 234/2/3 228/2/3 224/2/3
f 235/2/3 233/2/3 231/2/3
f 235/3/3 234/3/3 233/3/3
f 236/2/3 228/2/3 234/2/3
f 236/3/3 234/3/3 235/3/3
f 237/2/3 235/2/3 231/2/3
f 238/2/3 235/2/3 237/2/3
f 239/2/3 235/2/3 238/2/3
f 240/2/3 235/2/3 239/2/3
f 241/2/3 228/2/3 236/2/3
f 242/1/3 230/1/3 229/1/3
f 243/1/3 230/1/3 242/1/3
f 244/2/3 235/2/3 240/2/3
f 245/2/3 235/2/3 244/2/3
f 246/2/3 241/2/3 236/2/3
f 246/2/3 243/2/3 242/2/3
f 246/2/3 242/2/3 241/2/3
f 247/2/3 243/2/3 246/2/3
f 248/2/3 235/2/3 245/2/3
f 249/2/3 235/2/3 248/2/3
f 250/2/3 235/2/3 249/2/3
f 251/2/3 235/2/3 250/2/3
f 252/2/4 253/2/4 255/2/4
f 255/2/4 253/2/4 256/2/4
f 254/2/4 255/2/4 258/2/4
f 258/2/4 255/2/4 259/2/4
f 259/2/4 255/2/4 260/2/4
f 257/2/4 258/2/4 262/2/4
f 258/2/4 259/2/4 262/2/4
f 262/2/4 259/2/4 263/2/4
f 263/2/4 259/2/4 264/2/4
f 261/2/4 262/2/4 266/2/4
f 262/2/4 263/2/4 266/2/4
f 266/2/4 263/2/4 267/2/4
f 265/2/4 266/2/4 271/2/4
f 271/2/4 266/2/4 272/2/4
f 270/2/4 271/2/4 273/2/4
f 273/2/4 271/2/4 274/2/4
f 274/2/4 275/2/4 276/2/4
f 276/2/4 275/2/4 277/2/4
f 268/1/4 269/1/4 279/1/4
f 279/1/4 269/1/4 280/1/4
f 277/2/4 278/2/4 281/2/4
f 281/2/4 278/2/4 282/2/4
f 282/2/4 283/2/4 284/2/4
f 284/2/4 283/2/4 285/2/4
f 285/2/4 286/2/4 287/2/4
f 287/2/4 286/2/4 288/2/4
f 288/2/4 286/2/4 289/2/4
f 289/2/4 290/2/4 291/2/4
f 288/2/4 289/2/4 291/2/4
f 291/2/4 290/2/4 292/2/4
f 293/2/4 294/2/4 296/2/4
f 296/2/4 294/2/4 297/2/4
f 297/2/4 294/2/4 298/2/4
f 295/2/4 296/2/4 300/2/4
f 296/2/4 297/2/4 300/2/4
f 300/2/4 297/2/4 301/2/4
f 301/2/4 297/2/4 302/2/4
f 299/2/4 300/2/4 306/2/4
f 300/2/4 301/2/4 306/2/4
f 306/2/4 301/2/4 307/2/4
f 307/2/4 301/2/4 308/2/4
f 303/2/4 304/2/4 309/2/4
f 309/2/4 304/2/4 310/2/4
f 305/2/4 306/2/4 312/2/4
f 306/2/4 307/2/4 312/2/4
f 312/2/4 307/2/4 313/2/4
f 313/2/4 307/2/4 314/2/4
f 303/2/4 309/2/4 316/2/4
f 315/3/4 316/3/4 317/3/4
f 316/2/4 309/2/4 318/2/4
f 317/3/4 316/3/4 318/3/4
f 312/2/4 313/2/4 319/2/4
f 311/2/4 312/2/4 319/2/4
f 319/2/4 313/2/4 320/2/4
f 320/2/4 313/2/4 321/2/4
f 321/2/4 322/2/4 323/2/4
f 320/2/4 321/2/4 323/2/4
f 323/2/4 322/2/4 324/2/4
f 324/2/4 322/2/4 325/2/4
f 318/2/4 309/2/4 327/2/4
f 325/2/4 326/2/4 329/2/4
f 324/2/4 325/2/4 329/2/4
f 329/2/4 326/2/4 330/2/4
f 330/2/4 326/2/4 331/2/4
f 327/2/4 328/2/4 333/2/4
f 318/2/4 327/2/4 333/2/4
f 333/2/4 328/2/4 334/2/4
f 331/2/4 332/2/4 335/2/4
f 330/2/4 331/2/4 335/2/4
f 335/2/4 332/2/4 336/2/4
f 336/2/4 332/2/4 337/2/4
f 337/2/4 332/2/4 338/2/4
f 339/2/4 340/2/4 342/2/4
f 341/2/4 342/2/4 344/2/4
f 343/2/4 344/2/4 346/2/4
f 345/2/4 346/2/4 347/2/4
f 346/2/4 344/2/4 348/2/4
f 347/2/4 346/2/4 348/2/4
f 348/2/4 344/2/4 349/2/4
f 344/2/4 342/2/4 350/2/4
f 349/2/4 344/2/4 350/2/4
f 350/2/4 342/2/4 351/2/4
f 342/2/4 340/2/4 352/2/4
f 351/2/4 342/2/4 352/2/4
f 355/2/5 354/2/5 353/2/5
f 356/2/5 354/2/5 355/2/5
f 361/2/5 358/2/5 357/2/5
f 362/2/5 358/2/5 361/2/5
f 363/2/5 360/2/5 359/2/5
f 364/2/5 360/2/5 363/2/5
f 365/2/5 363/2/5 362/2/5
f 366/2/5 363/2/5 365/2/5
f 371/2/5 368/2/5 367/2/5
f 372/2/5 368/2/5 371/2/5
f 375/2/5 370/2/5 369/2/5
f 376/2/5 370/2/5 375/2/5
f 377/2/5 373/2/5 372/2/5
f 378/2/5 373/2/5 377/2/5
f 379/2/5 375/2/5 374/2/5
f 380/2/5 375/2/5 379/2/5
f 383/2/5 382/2/5 381/2/5
f 384/2/5 382/2/5 383/2/5
f 390/2/5 386/2/5 385/2/5
f 391/2/5 386/2/5 390/2/5
f 392/2/5 388/2/5 387/2/5
f 393/2/5 388/2/5 392/2/5
f 396/2/5 390/2/5 389/2/5
f 397/2/5 390/2/5 396/2/5
f 398/2/5 395/2/5 394/2/5
f 399/2/5 395/2/5 398/2/5
f 402/2/5 401/2/5 400/2/5
f 403/2/5 401/2/5 402/2/5
f 406/2/5 405/2/5 404/2/5
f 407/2/5 405/2/5 406/2/5
f 413/2/5 409/2/5 408/2/5
f 414/2/5 409/2/5 413/2/5
f 415/2/5 411/2/5 410/2/5
f 416/2/5 411/2/5 415/2/5
f 419/2/5 413/2/5 412/2/5
f 420/2/5 413/2/5 419/2/5
f 421/2/5 418/2/5 417/2/5
f 422/2/5 418/2/5 421/2/5
f 425/2/5 424/2/5 423/2/5
f 426/2/5 424/2/5 425/2/5
f 431/2/5 428/2/5 427/2/5
f 432/2/5 428/2/5 431/2/5
f 434/2/5 430/2/5 429/2/5
f 435/2/5 430/2/5 434/2/5
f 436/2/5 433/2/5 432/2/5
f 437/2/5 433/2/5 436/2/5
f 440/2/5 439/2/5 438/2/5
f 441/2/5 439/2/5 440/2/5
f 444/2/5 443/2/5 442/2/5
f 445/2/5 443/2/5 444/2/5
f 448/2/5 447/2/5 446/2/5
f 449/2/5 447/2/5 448/2/5
f 454/2/5 451/2/5 450/2/5
f 455/2/5 451/2/5 454/2/5
f 456/2/5 453/2/5 452/2/5
f 457/2/5 453/2/5 456/2/5
f 460/1/5 459/1/5 458/1/5
f 461/1/5 459/1/5 460/1/5
f 462/2/6 463/2/6 464/2/6
f 464/2/6 463/2/6 465/2/6
f 466/2/6 467/2/6 470/2/6
f 470/2/6 467/2/6 471/2/6
f 468/2/6 469/2/6 472/2/6
f 472/2/6 469/2/6 473/2/6
f 474/2/6 475/2/6 478/2/6
f 478/2/6 475/2/6 479/2/6
f 476/2/6 477/2/6 480/2/6
f 480/2/6 477/2/6 481/2/6
f 482/2/6 483/2/6 486/2/6
f 486/2/6 483/2/6 487/2/6
f 484/2/6 485/2/6 488/2/6
f 488/2/6 485/2/6 489/2/6
f 490/2/6 491/2/6 494/2/6
f 494/2/6 491/2/6 495/2/6
f 492/2/6 493/2/6 496/2/6
f 496/2/6 493/2/6 497/2/6
f 498/2/6 499/2/6 502/2/6
f 500/2/6 501/2/6 505/2/6
f 502/2/6 503/2/6 506/2/6
f 498/2/6 502/2/6 506/2/6
f 506/2/6 503/2/6 507/2/6
f 504/2/6 505/2/6 508/2/6
f 505/2/6 501/2/6 508/2/6
f 508/2/6 501/2/6 509/2/6
f 507/2/6 503/2/6 510/2/6
f 510/2/6 503/2/6 511/2/6
f 511/2/6 503/2/6 512/2/6
f 504/2/6 508/2/6 513/2/6
f 513/2/6 508/2/6 514/2/6
f 514/2/6 508/2/6 515/2/6
f 511/2/6 512/2/6 516/2/6
f 513/2/6 514/2/6 516/2/6
f 512/2/6 513/2/6 516/2/6
f 516/2/6 514/2/6 517/2/6
f 518/2/6 519/2/6 520/2/6
f 520/2/6 519/2/6 521/2/6
f 522/2/6 523/2/6 526/2/6
f 523/1/6 524/1/6 526/1/6
f 524/2/6 525/2/6 527/2/6
f 526/1/6 524/1/6 527/1/6
f 522/2/6 526/2/6 528/2/6
f 528/2/6 526/2/6 529/2/6
f 527/2/6 525/2/6 530/2/6
f 530/2/6 525/2/6 531/2/6
