# MagicaVoxel @ Ephtracy

# group
g CautionSign2

# material
mtllib CautionSign2.mtl
usemtl palette

# normals
vn -1 0 0
vn 1 0 0
vn 0 0 1
vn 0 0 -1
vn 0 -1 0
vn 0 1 0

# texcoords
vt 0.212891 0.5
vt 0.216797 0.5
vt 0.244141 0.5

# verts
v -5 0 4
v -5 0 -3
v -5 1 4
v -5 1 -3
v -3 1 2
v -3 1 -1
v -3 2 2
v -3 2 -1
v -3 20 1
v -3 20 -0
v -3 21 2
v -3 21 1
v -3 21 -0
v -3 21 -1
v -3 22 3
v -3 22 2
v -3 22 1
v -3 22 -0
v -3 22 -1
v -3 22 -2
v -3 23 4
v -3 23 3
v -3 23 2
v -3 23 1
v -3 23 -0
v -3 23 -1
v -3 23 -2
v -3 23 -3
v -3 24 5
v -3 24 4
v -3 24 3
v -3 24 2
v -3 24 1
v -3 24 -0
v -3 24 -1
v -3 24 -2
v -3 24 -3
v -3 24 -4
v -3 25 6
v -3 25 5
v -3 25 4
v -3 25 3
v -3 25 1
v -3 25 -0
v -3 25 -2
v -3 25 -3
v -3 25 -4
v -3 25 -5
v -3 26 7
v -3 26 6
v -3 26 5
v -3 26 4
v -3 26 1
v -3 26 -0
v -3 26 -3
v -3 26 -4
v -3 26 -5
v -3 26 -6
v -3 27 8
v -3 27 7
v -3 27 6
v -3 27 5
v -3 27 -4
v -3 27 -5
v -3 27 -6
v -3 27 -7
v -3 28 8
v -3 28 7
v -3 28 6
v -3 28 5
v -3 28 -4
v -3 28 -5
v -3 28 -6
v -3 28 -7
v -3 29 7
v -3 29 6
v -3 29 5
v -3 29 4
v -3 29 -3
v -3 29 -4
v -3 29 -5
v -3 29 -6
v -3 30 6
v -3 30 5
v -3 30 4
v -3 30 3
v -3 30 -2
v -3 30 -3
v -3 30 -4
v -3 30 -5
v -3 31 5
v -3 31 4
v -3 31 3
v -3 31 2
v -3 31 1
v -3 31 -0
v -3 31 -1
v -3 31 -2
v -3 31 -3
v -3 31 -4
v -3 32 4
v -3 32 3
v -3 32 2
v -3 32 1
v -3 32 -0
v -3 32 -1
v -3 32 -2
v -3 32 -3
v -3 33 3
v -3 33 2
v -3 33 1
v -3 33 -0
v -3 33 -1
v -3 33 -2
v -3 34 2
v -3 34 1
v -3 34 -0
v -3 34 -1
v -3 35 1
v -3 35 -0
v -2 2 1
v -2 2 -0
v -2 20 1
v -2 20 -0
v -2 21 2
v -2 21 1
v -2 21 -0
v -2 21 -1
v -2 22 3
v -2 22 2
v -2 22 1
v -2 22 -0
v -2 22 -1
v -2 22 -2
v -2 23 4
v -2 23 3
v -2 23 2
v -2 23 1
v -2 23 -0
v -2 23 -1
v -2 23 -2
v -2 23 -3
v -2 24 5
v -2 24 4
v -2 24 3
v -2 24 2
v -2 24 -1
v -2 24 -2
v -2 24 -3
v -2 24 -4
v -2 25 6
v -2 25 5
v -2 25 4
v -2 25 3
v -2 25 -2
v -2 25 -3
v -2 25 -4
v -2 25 -5
v -2 26 7
v -2 26 6
v -2 26 5
v -2 26 4
v -2 26 -3
v -2 26 -4
v -2 26 -5
v -2 26 -6
v -2 27 8
v -2 27 7
v -2 27 6
v -2 27 5
v -2 27 1
v -2 27 -0
v -2 27 -4
v -2 27 -5
v -2 27 -6
v -2 27 -7
v -2 28 8
v -2 28 7
v -2 28 6
v -2 28 5
v -2 28 1
v -2 28 -0
v -2 28 -4
v -2 28 -5
v -2 28 -6
v -2 28 -7
v -2 29 7
v -2 29 6
v -2 29 5
v -2 29 4
v -2 29 -3
v -2 29 -4
v -2 29 -5
v -2 29 -6
v -2 30 6
v -2 30 5
v -2 30 4
v -2 30 3
v -2 30 -2
v -2 30 -3
v -2 30 -4
v -2 30 -5
v -2 31 5
v -2 31 4
v -2 31 3
v -2 31 2
v -2 31 -1
v -2 31 -2
v -2 31 -3
v -2 31 -4
v -2 32 4
v -2 32 3
v -2 32 2
v -2 32 1
v -2 32 -0
v -2 32 -1
v -2 32 -2
v -2 32 -3
v -2 33 3
v -2 33 2
v -2 33 1
v -2 33 -0
v -2 33 -1
v -2 33 -2
v -2 34 2
v -2 34 1
v -2 34 -0
v -2 34 -1
v -1 2 1
v -1 2 -0
v -1 27 5
v -1 27 1
v -1 27 -0
v -1 27 -4
v -1 28 5
v -1 28 1
v -1 28 -0
v -1 28 -4
v -1 35 1
v -1 35 -0
v 0 1 2
v 0 1 -1
v 0 2 2
v 0 2 -1
v 2 0 4
v 2 0 -3
v 2 1 4
v 2 1 -3
v -3 27 8
v -3 28 8
v -2 27 8
v -2 28 8
v -3 26 7
v -3 27 7
v -3 28 7
v -3 29 7
v -2 26 7
v -2 27 7
v -2 28 7
v -2 29 7
v -3 25 6
v -3 26 6
v -3 29 6
v -3 30 6
v -2 25 6
v -2 26 6
v -2 29 6
v -2 30 6
v -3 24 5
v -3 25 5
v -3 30 5
v -3 31 5
v -2 24 5
v -2 25 5
v -2 27 5
v -2 28 5
v -2 30 5
v -2 31 5
v -1 27 5
v -1 28 5
v -5 0 4
v -5 1 4
v -3 23 4
v -3 24 4
v -3 31 4
v -3 32 4
v -2 23 4
v -2 24 4
v -2 31 4
v -2 32 4
v 2 0 4
v 2 1 4
v -3 22 3
v -3 23 3
v -3 32 3
v -3 33 3
v -2 22 3
v -2 23 3
v -2 32 3
v -2 33 3
v -3 1 2
v -3 2 2
v -3 21 2
v -3 22 2
v -3 33 2
v -3 34 2
v -2 21 2
v -2 22 2
v -2 33 2
v -2 34 2
v 0 1 2
v 0 2 2
v -3 20 1
v -3 21 1
v -3 34 1
v -3 35 1
v -2 2 1
v -2 20 1
v -2 21 1
v -2 22 1
v -2 23 1
v -2 27 1
v -2 28 1
v -2 32 1
v -2 33 1
v -2 34 1
v -2 35 1
v -1 2 1
v -1 27 1
v -1 28 1
v -1 35 1
v -3 20 -0
v -3 21 -0
v -3 34 -0
v -3 35 -0
v -2 2 -0
v -2 20 -0
v -2 21 -0
v -2 22 -0
v -2 23 -0
v -2 27 -0
v -2 28 -0
v -2 32 -0
v -2 33 -0
v -2 34 -0
v -2 35 -0
v -1 2 -0
v -1 27 -0
v -1 28 -0
v -1 35 -0
v -3 1 -1
v -3 2 -1
v -3 21 -1
v -3 22 -1
v -3 33 -1
v -3 34 -1
v -2 21 -1
v -2 22 -1
v -2 33 -1
v -2 34 -1
v 0 1 -1
v 0 2 -1
v -3 22 -2
v -3 23 -2
v -3 32 -2
v -3 33 -2
v -2 22 -2
v -2 23 -2
v -2 32 -2
v -2 33 -2
v -5 0 -3
v -5 1 -3
v -3 23 -3
v -3 24 -3
v -3 31 -3
v -3 32 -3
v -2 23 -3
v -2 24 -3
v -2 31 -3
v -2 32 -3
v 2 0 -3
v 2 1 -3
v -3 24 -4
v -3 25 -4
v -3 30 -4
v -3 31 -4
v -2 24 -4
v -2 25 -4
v -2 27 -4
v -2 28 -4
v -2 30 -4
v -2 31 -4
v -1 27 -4
v -1 28 -4
v -3 25 -5
v -3 26 -5
v -3 29 -5
v -3 30 -5
v -2 25 -5
v -2 26 -5
v -2 29 -5
v -2 30 -5
v -3 26 -6
v -3 27 -6
v -3 28 -6
v -3 29 -6
v -2 26 -6
v -2 27 -6
v -2 28 -6
v -2 29 -6
v -3 27 -7
v -3 28 -7
v -2 27 -7
v -2 28 -7
v -5 0 4
v 2 0 4
v -5 0 -3
v 2 0 -3
v -3 20 1
v -2 20 1
v -3 20 -0
v -2 20 -0
v -3 21 2
v -2 21 2
v -3 21 1
v -2 21 1
v -3 21 -0
v -2 21 -0
v -3 21 -1
v -2 21 -1
v -3 22 3
v -2 22 3
v -3 22 2
v -2 22 2
v -3 22 -1
v -2 22 -1
v -3 22 -2
v -2 22 -2
v -3 23 4
v -2 23 4
v -3 23 3
v -2 23 3
v -3 23 -2
v -2 23 -2
v -3 23 -3
v -2 23 -3
v -3 24 5
v -2 24 5
v -3 24 4
v -2 24 4
v -3 24 -3
v -2 24 -3
v -3 24 -4
v -2 24 -4
v -3 25 6
v -2 25 6
v -3 25 5
v -2 25 5
v -3 25 -4
v -2 25 -4
v -3 25 -5
v -2 25 -5
v -3 26 7
v -2 26 7
v -3 26 6
v -2 26 6
v -3 26 -5
v -2 26 -5
v -3 26 -6
v -2 26 -6
v -3 27 8
v -2 27 8
v -3 27 7
v -2 27 7
v -2 27 5
v -1 27 5
v -2 27 1
v -1 27 1
v -2 27 -0
v -1 27 -0
v -2 27 -4
v -1 27 -4
v -3 27 -6
v -2 27 -6
v -3 27 -7
v -2 27 -7
v -5 1 4
v 2 1 4
v -3 1 2
v 0 1 2
v -3 1 -1
v 0 1 -1
v -5 1 -3
v 2 1 -3
v -3 2 2
v 0 2 2
v -2 2 1
v -1 2 1
v -2 2 -0
v -1 2 -0
v -3 2 -1
v 0 2 -1
v -3 28 8
v -2 28 8
v -3 28 7
v -2 28 7
v -2 28 5
v -1 28 5
v -2 28 1
v -1 28 1
v -2 28 -0
v -1 28 -0
v -2 28 -4
v -1 28 -4
v -3 28 -6
v -2 28 -6
v -3 28 -7
v -2 28 -7
v -3 29 7
v -2 29 7
v -3 29 6
v -2 29 6
v -3 29 -5
v -2 29 -5
v -3 29 -6
v -2 29 -6
v -3 30 6
v -2 30 6
v -3 30 5
v -2 30 5
v -3 30 -4
v -2 30 -4
v -3 30 -5
v -2 30 -5
v -3 31 5
v -2 31 5
v -3 31 4
v -2 31 4
v -3 31 -3
v -2 31 -3
v -3 31 -4
v -2 31 -4
v -3 32 4
v -2 32 4
v -3 32 3
v -2 32 3
v -3 32 -2
v -2 32 -2
v -3 32 -3
v -2 32 -3
v -3 33 3
v -2 33 3
v -3 33 2
v -2 33 2
v -3 33 -1
v -2 33 -1
v -3 33 -2
v -2 33 -2
v -3 34 2
v -2 34 2
v -3 34 1
v -2 34 1
v -3 34 -0
v -2 34 -0
v -3 34 -1
v -2 34 -1
v -3 35 1
v -2 35 1
v -1 35 1
v -3 35 -0
v -2 35 -0
v -1 35 -0

# faces
f 3/3/1 2/3/1 1/3/1
f 4/3/1 2/3/1 3/3/1
f 7/3/1 6/3/1 5/3/1
f 8/3/1 6/3/1 7/3/1
f 12/2/1 10/2/1 9/2/1
f 13/2/1 10/2/1 12/2/1
f 16/2/1 12/2/1 11/2/1
f 17/1/1 13/1/1 12/1/1
f 17/2/1 12/2/1 16/2/1
f 18/2/1 14/2/1 13/2/1
f 18/1/1 13/1/1 17/1/1
f 19/2/1 14/2/1 18/2/1
f 22/2/1 16/2/1 15/2/1
f 23/1/1 17/1/1 16/1/1
f 23/2/1 16/2/1 22/2/1
f 24/2/1 18/2/1 17/2/1
f 24/1/1 17/1/1 23/1/1
f 25/1/1 19/1/1 18/1/1
f 25/2/1 18/2/1 24/2/1
f 26/2/1 20/2/1 19/2/1
f 26/1/1 19/1/1 25/1/1
f 27/2/1 20/2/1 26/2/1
f 30/2/1 22/2/1 21/2/1
f 31/1/1 23/1/1 22/1/1
f 31/2/1 22/2/1 30/2/1
f 32/2/1 24/2/1 23/2/1
f 32/1/1 23/1/1 31/1/1
f 32/2/1 25/2/1 24/2/1
f 32/2/1 26/2/1 25/2/1
f 33/2/1 26/2/1 32/2/1
f 34/2/1 26/2/1 33/2/1
f 35/1/1 27/1/1 26/1/1
f 35/2/1 26/2/1 34/2/1
f 36/2/1 28/2/1 27/2/1
f 36/1/1 27/1/1 35/1/1
f 37/2/1 28/2/1 36/2/1
f 40/2/1 30/2/1 29/2/1
f 41/1/1 31/1/1 30/1/1
f 41/2/1 30/2/1 40/2/1
f 42/2/1 32/2/1 31/2/1
f 42/1/1 31/1/1 41/1/1
f 42/2/1 33/2/1 32/2/1
f 43/1/1 34/1/1 33/1/1
f 43/2/1 33/2/1 42/2/1
f 44/2/1 35/2/1 34/2/1
f 44/1/1 34/1/1 43/1/1
f 44/2/1 36/2/1 35/2/1
f 45/1/1 37/1/1 36/1/1
f 45/2/1 36/2/1 44/2/1
f 46/2/1 38/2/1 37/2/1
f 46/1/1 37/1/1 45/1/1
f 47/2/1 38/2/1 46/2/1
f 50/2/1 40/2/1 39/2/1
f 51/1/1 41/1/1 40/1/1
f 51/2/1 40/2/1 50/2/1
f 52/2/1 43/2/1 42/2/1
f 52/1/1 41/1/1 51/1/1
f 52/2/1 45/2/1 44/2/1
f 52/2/1 42/2/1 41/2/1
f 52/2/1 44/2/1 43/2/1
f 52/2/1 46/2/1 45/2/1
f 53/2/1 46/2/1 52/2/1
f 54/2/1 46/2/1 53/2/1
f 55/1/1 47/1/1 46/1/1
f 55/2/1 46/2/1 54/2/1
f 56/2/1 48/2/1 47/2/1
f 56/1/1 47/1/1 55/1/1
f 57/2/1 48/2/1 56/2/1
f 60/2/1 50/2/1 49/2/1
f 61/1/1 51/1/1 50/1/1
f 61/2/1 50/2/1 60/2/1
f 62/2/1 52/2/1 51/2/1
f 62/1/1 51/1/1 61/1/1
f 62/2/1 53/2/1 52/2/1
f 63/2/1 55/2/1 54/2/1
f 63/2/1 56/2/1 55/2/1
f 63/1/1 57/1/1 56/1/1
f 64/2/1 58/2/1 57/2/1
f 64/1/1 57/1/1 63/1/1
f 65/2/1 58/2/1 64/2/1
f 67/2/1 60/2/1 59/2/1
f 68/1/1 61/1/1 60/1/1
f 68/2/1 60/2/1 67/2/1
f 69/2/1 62/2/1 61/2/1
f 69/1/1 61/1/1 68/1/1
f 70/2/1 53/2/1 62/2/1
f 70/2/1 62/2/1 69/2/1
f 71/2/1 63/2/1 54/2/1
f 71/2/1 64/2/1 63/2/1
f 72/1/1 65/1/1 64/1/1
f 72/2/1 64/2/1 71/2/1
f 73/2/1 66/2/1 65/2/1
f 73/1/1 65/1/1 72/1/1
f 74/2/1 66/2/1 73/2/1
f 75/2/1 69/2/1 68/2/1
f 76/1/1 70/1/1 69/1/1
f 76/2/1 69/2/1 75/2/1
f 77/2/1 53/2/1 70/2/1
f 77/1/1 70/1/1 76/1/1
f 78/2/1 53/2/1 77/2/1
f 79/2/1 71/2/1 54/2/1
f 80/1/1 72/1/1 71/1/1
f 80/2/1 71/2/1 79/2/1
f 81/2/1 73/2/1 72/2/1
f 81/1/1 72/1/1 80/1/1
f 82/2/1 73/2/1 81/2/1
f 83/2/1 77/2/1 76/2/1
f 84/1/1 78/1/1 77/1/1
f 84/2/1 77/2/1 83/2/1
f 85/2/1 53/2/1 78/2/1
f 85/1/1 78/1/1 84/1/1
f 86/2/1 53/2/1 85/2/1
f 87/2/1 79/2/1 54/2/1
f 88/1/1 80/1/1 79/1/1
f 88/2/1 79/2/1 87/2/1
f 89/2/1 81/2/1 80/2/1
f 89/1/1 80/1/1 88/1/1
f 90/2/1 81/2/1 89/2/1
f 91/2/1 85/2/1 84/2/1
f 92/1/1 86/1/1 85/1/1
f 92/2/1 85/2/1 91/2/1
f 93/2/1 53/2/1 86/2/1
f 93/1/1 86/1/1 92/1/1
f 94/2/1 53/2/1 93/2/1
f 95/1/1 54/1/1 53/1/1
f 95/2/1 53/2/1 94/2/1
f 96/2/1 87/2/1 54/2/1
f 96/1/1 54/1/1 95/1/1
f 97/2/1 87/2/1 96/2/1
f 98/1/1 88/1/1 87/1/1
f 98/2/1 87/2/1 97/2/1
f 99/2/1 89/2/1 88/2/1
f 99/1/1 88/1/1 98/1/1
f 100/2/1 89/2/1 99/2/1
f 101/2/1 93/2/1 92/2/1
f 102/1/1 94/1/1 93/1/1
f 102/2/1 93/2/1 101/2/1
f 103/2/1 95/2/1 94/2/1
f 103/1/1 94/1/1 102/1/1
f 103/2/1 97/2/1 96/2/1
f 103/2/1 96/2/1 95/2/1
f 104/2/1 97/2/1 103/2/1
f 105/2/1 97/2/1 104/2/1
f 106/1/1 98/1/1 97/1/1
f 106/2/1 97/2/1 105/2/1
f 107/2/1 99/2/1 98/2/1
f 107/1/1 98/1/1 106/1/1
f 108/2/1 99/2/1 107/2/1
f 109/2/1 103/2/1 102/2/1
f 110/1/1 104/1/1 103/1/1
f 110/2/1 103/2/1 109/2/1
f 111/2/1 105/2/1 104/2/1
f 111/1/1 104/1/1 110/1/1
f 112/1/1 106/1/1 105/1/1
f 112/2/1 105/2/1 111/2/1
f 113/2/1 107/2/1 106/2/1
f 113/1/1 106/1/1 112/1/1
f 114/2/1 107/2/1 113/2/1
f 115/2/1 111/2/1 110/2/1
f 116/1/1 112/1/1 111/1/1
f 116/2/1 111/2/1 115/2/1
f 117/2/1 113/2/1 112/2/1
f 117/1/1 112/1/1 116/1/1
f 118/2/1 113/2/1 117/2/1
f 119/2/1 117/2/1 116/2/1
f 120/2/1 117/2/1 119/2/1
f 123/3/1 122/3/1 121/3/1
f 124/3/1 122/3/1 123/3/1
f 125/2/2 126/2/2 130/2/2
f 130/2/2 126/2/2 131/2/2
f 127/2/2 128/2/2 132/2/2
f 132/2/2 128/2/2 133/2/2
f 129/2/2 130/2/2 136/2/2
f 130/1/2 131/1/2 137/1/2
f 136/2/2 130/2/2 137/2/2
f 137/1/2 131/1/2 138/1/2
f 132/1/2 133/1/2 139/1/2
f 133/2/2 134/2/2 140/2/2
f 139/1/2 133/1/2 140/1/2
f 140/2/2 134/2/2 141/2/2
f 135/2/2 136/2/2 144/2/2
f 136/1/2 137/1/2 145/1/2
f 144/2/2 136/2/2 145/2/2
f 137/2/2 138/2/2 146/2/2
f 145/1/2 137/1/2 146/1/2
f 139/2/2 140/2/2 147/2/2
f 140/1/2 141/1/2 147/1/2
f 141/2/2 142/2/2 148/2/2
f 147/1/2 141/1/2 148/1/2
f 148/2/2 142/2/2 149/2/2
f 143/2/2 144/2/2 152/2/2
f 144/1/2 145/1/2 153/1/2
f 152/2/2 144/2/2 153/2/2
f 145/2/2 146/2/2 154/2/2
f 153/1/2 145/1/2 154/1/2
f 147/2/2 148/2/2 155/2/2
f 148/1/2 149/1/2 155/1/2
f 149/2/2 150/2/2 156/2/2
f 155/1/2 149/1/2 156/1/2
f 156/2/2 150/2/2 157/2/2
f 151/2/2 152/2/2 160/2/2
f 152/1/2 153/1/2 161/1/2
f 160/2/2 152/2/2 161/2/2
f 153/2/2 154/2/2 162/2/2
f 161/1/2 153/1/2 162/1/2
f 155/2/2 156/2/2 163/2/2
f 156/1/2 157/1/2 163/1/2
f 157/2/2 158/2/2 164/2/2
f 163/1/2 157/1/2 164/1/2
f 164/2/2 158/2/2 165/2/2
f 159/2/2 160/2/2 168/2/2
f 160/1/2 161/1/2 169/1/2
f 168/2/2 160/2/2 169/2/2
f 161/2/2 162/2/2 170/2/2
f 169/1/2 161/1/2 170/1/2
f 146/2/2 138/2/2 171/2/2
f 170/2/2 162/2/2 171/2/2
f 154/2/2 146/2/2 171/2/2
f 162/2/2 154/2/2 171/2/2
f 139/2/2 147/2/2 172/2/2
f 155/2/2 163/2/2 172/2/2
f 163/2/2 164/2/2 172/2/2
f 147/2/2 155/2/2 172/2/2
f 164/1/2 165/1/2 173/1/2
f 172/2/2 164/2/2 173/2/2
f 165/2/2 166/2/2 174/2/2
f 173/1/2 165/1/2 174/1/2
f 174/2/2 166/2/2 175/2/2
f 167/2/2 168/2/2 177/2/2
f 168/1/2 169/1/2 178/1/2
f 177/2/2 168/2/2 178/2/2
f 169/2/2 170/2/2 179/2/2
f 178/1/2 169/1/2 179/1/2
f 179/2/2 170/2/2 180/2/2
f 173/2/2 174/2/2 183/2/2
f 174/1/2 175/1/2 184/1/2
f 183/2/2 174/2/2 184/2/2
f 175/2/2 176/2/2 185/2/2
f 184/1/2 175/1/2 185/1/2
f 185/2/2 176/2/2 186/2/2
f 178/2/2 179/2/2 187/2/2
f 179/1/2 180/1/2 188/1/2
f 187/2/2 179/2/2 188/2/2
f 180/2/2 181/2/2 189/2/2
f 188/1/2 180/1/2 189/1/2
f 189/2/2 181/2/2 190/2/2
f 182/2/2 183/2/2 191/2/2
f 183/1/2 184/1/2 192/1/2
f 191/2/2 183/2/2 192/2/2
f 184/2/2 185/2/2 193/2/2
f 192/1/2 184/1/2 193/1/2
f 193/2/2 185/2/2 194/2/2
f 188/2/2 189/2/2 195/2/2
f 189/1/2 190/1/2 196/1/2
f 195/2/2 189/2/2 196/2/2
f 190/2/2 181/2/2 197/2/2
f 196/1/2 190/1/2 197/1/2
f 197/2/2 181/2/2 198/2/2
f 182/2/2 191/2/2 199/2/2
f 191/1/2 192/1/2 200/1/2
f 199/2/2 191/2/2 200/2/2
f 192/2/2 193/2/2 201/2/2
f 200/1/2 192/1/2 201/1/2
f 201/2/2 193/2/2 202/2/2
f 196/2/2 197/2/2 203/2/2
f 197/1/2 198/1/2 204/1/2
f 203/2/2 197/2/2 204/2/2
f 198/2/2 181/2/2 205/2/2
f 204/1/2 198/1/2 205/1/2
f 205/2/2 181/2/2 206/2/2
f 182/2/2 199/2/2 207/2/2
f 199/1/2 200/1/2 208/1/2
f 207/2/2 199/2/2 208/2/2
f 200/2/2 201/2/2 209/2/2
f 208/1/2 200/1/2 209/1/2
f 209/2/2 201/2/2 210/2/2
f 204/2/2 205/2/2 211/2/2
f 205/1/2 206/1/2 212/1/2
f 211/2/2 205/2/2 212/2/2
f 206/2/2 181/2/2 213/2/2
f 212/1/2 206/1/2 213/1/2
f 213/2/2 181/2/2 214/2/2
f 182/2/2 207/2/2 215/2/2
f 207/1/2 208/1/2 216/1/2
f 215/2/2 207/2/2 216/2/2
f 208/2/2 209/2/2 217/2/2
f 216/1/2 208/1/2 217/1/2
f 217/2/2 209/2/2 218/2/2
f 212/2/2 213/2/2 219/2/2
f 213/1/2 214/1/2 220/1/2
f 219/2/2 213/2/2 220/2/2
f 220/1/2 214/1/2 221/1/2
f 215/1/2 216/1/2 222/1/2
f 216/2/2 217/2/2 223/2/2
f 222/1/2 216/1/2 223/1/2
f 223/2/2 217/2/2 224/2/2
f 220/2/2 221/2/2 225/2/2
f 225/2/2 221/2/2 226/2/2
f 222/2/2 223/2/2 227/2/2
f 227/2/2 223/2/2 228/2/2
f 229/3/2 230/3/2 232/3/2
f 232/3/2 230/3/2 233/3/2
f 231/3/2 232/3/2 235/3/2
f 233/3/2 234/3/2 235/3/2
f 232/3/2 233/3/2 235/3/2
f 235/3/2 234/3/2 236/3/2
f 236/3/2 234/3/2 237/3/2
f 237/3/2 234/3/2 238/3/2
f 236/3/2 237/3/2 239/3/2
f 239/3/2 237/3/2 240/3/2
f 241/3/2 242/3/2 243/3/2
f 243/3/2 242/3/2 244/3/2
f 245/3/2 246/3/2 247/3/2
f 247/3/2 246/3/2 248/3/2
f 251/2/3 250/2/3 249/2/3
f 252/2/3 250/2/3 251/2/3
f 257/2/3 254/2/3 253/2/3
f 258/2/3 254/2/3 257/2/3
f 259/2/3 256/2/3 255/2/3
f 260/2/3 256/2/3 259/2/3
f 265/2/3 262/2/3 261/2/3
f 266/2/3 262/2/3 265/2/3
f 267/2/3 264/2/3 263/2/3
f 268/2/3 264/2/3 267/2/3
f 273/2/3 270/2/3 269/2/3
f 274/2/3 270/2/3 273/2/3
f 277/2/3 272/2/3 271/2/3
f 278/2/3 272/2/3 277/2/3
f 279/3/3 276/3/3 275/3/3
f 280/3/3 276/3/3 279/3/3
f 287/2/3 284/2/3 283/2/3
f 288/2/3 284/2/3 287/2/3
f 289/2/3 286/2/3 285/2/3
f 290/2/3 286/2/3 289/2/3
f 291/3/3 282/3/3 281/3/3
f 292/3/3 282/3/3 291/3/3
f 297/2/3 294/2/3 293/2/3
f 298/2/3 294/2/3 297/2/3
f 299/2/3 296/2/3 295/2/3
f 300/2/3 296/2/3 299/2/3
f 307/2/3 304/2/3 303/2/3
f 308/2/3 304/2/3 307/2/3
f 309/2/3 306/2/3 305/2/3
f 310/2/3 306/2/3 309/2/3
f 311/3/3 302/3/3 301/3/3
f 312/3/3 302/3/3 311/3/3
f 318/2/3 314/2/3 313/2/3
f 319/2/3 314/2/3 318/2/3
f 326/2/3 316/2/3 315/2/3
f 327/2/3 316/2/3 326/2/3
f 328/3/3 318/3/3 317/3/3
f 328/3/3 319/3/3 318/3/3
f 328/3/3 320/3/3 319/3/3
f 328/3/3 321/3/3 320/3/3
f 328/3/3 322/3/3 321/3/3
f 329/3/3 322/3/3 328/3/3
f 330/3/3 325/3/3 324/3/3
f 330/3/3 327/3/3 326/3/3
f 330/3/3 326/3/3 325/3/3
f 330/3/3 324/3/3 323/3/3
f 331/3/3 327/3/3 330/3/3
f 332/2/4 333/2/4 337/2/4
f 337/2/4 333/2/4 338/2/4
f 334/2/4 335/2/4 345/2/4
f 345/2/4 335/2/4 346/2/4
f 336/3/4 337/3/4 347/3/4
f 337/3/4 338/3/4 347/3/4
f 338/3/4 339/3/4 347/3/4
f 339/3/4 340/3/4 347/3/4
f 340/3/4 341/3/4 347/3/4
f 347/3/4 341/3/4 348/3/4
f 343/3/4 344/3/4 349/3/4
f 345/3/4 346/3/4 349/3/4
f 344/3/4 345/3/4 349/3/4
f 342/3/4 343/3/4 349/3/4
f 349/3/4 346/3/4 350/3/4
f 353/2/4 354/2/4 357/2/4
f 357/2/4 354/2/4 358/2/4
f 355/2/4 356/2/4 359/2/4
f 359/2/4 356/2/4 360/2/4
f 351/3/4 352/3/4 361/3/4
f 361/3/4 352/3/4 362/3/4
f 363/2/4 364/2/4 367/2/4
f 367/2/4 364/2/4 368/2/4
f 365/2/4 366/2/4 369/2/4
f 369/2/4 366/2/4 370/2/4
f 373/2/4 374/2/4 377/2/4
f 377/2/4 374/2/4 378/2/4
f 375/2/4 376/2/4 379/2/4
f 379/2/4 376/2/4 380/2/4
f 371/3/4 372/3/4 381/3/4
f 381/3/4 372/3/4 382/3/4
f 383/2/4 384/2/4 387/2/4
f 387/2/4 384/2/4 388/2/4
f 385/2/4 386/2/4 391/2/4
f 391/2/4 386/2/4 392/2/4
f 389/3/4 390/3/4 393/3/4
f 393/3/4 390/3/4 394/3/4
f 395/2/4 396/2/4 399/2/4
f 399/2/4 396/2/4 400/2/4
f 397/2/4 398/2/4 401/2/4
f 401/2/4 398/2/4 402/2/4
f 403/2/4 404/2/4 407/2/4
f 407/2/4 404/2/4 408/2/4
f 405/2/4 406/2/4 409/2/4
f 409/2/4 406/2/4 410/2/4
f 411/2/4 412/2/4 413/2/4
f 413/2/4 412/2/4 414/2/4
f 417/3/5 416/3/5 415/3/5
f 418/3/5 416/3/5 417/3/5
f 421/2/5 420/2/5 419/2/5
f 422/2/5 420/2/5 421/2/5
f 425/2/5 424/2/5 423/2/5
f 426/2/5 424/2/5 425/2/5
f 429/2/5 428/2/5 427/2/5
f 430/2/5 428/2/5 429/2/5
f 433/2/5 432/2/5 431/2/5
f 434/2/5 432/2/5 433/2/5
f 437/2/5 436/2/5 435/2/5
f 438/2/5 436/2/5 437/2/5
f 441/2/5 440/2/5 439/2/5
f 442/2/5 440/2/5 441/2/5
f 445/2/5 444/2/5 443/2/5
f 446/2/5 444/2/5 445/2/5
f 449/2/5 448/2/5 447/2/5
f 450/2/5 448/2/5 449/2/5
f 453/2/5 452/2/5 451/2/5
f 454/2/5 452/2/5 453/2/5
f 457/2/5 456/2/5 455/2/5
f 458/2/5 456/2/5 457/2/5
f 461/2/5 460/2/5 459/2/5
f 462/2/5 460/2/5 461/2/5
f 465/2/5 464/2/5 463/2/5
f 466/2/5 464/2/5 465/2/5
f 469/2/5 468/2/5 467/2/5
f 470/2/5 468/2/5 469/2/5
f 473/2/5 472/2/5 471/2/5
f 474/2/5 472/2/5 473/2/5
f 477/3/5 476/3/5 475/3/5
f 478/3/5 476/3/5 477/3/5
f 481/3/5 480/3/5 479/3/5
f 482/3/5 480/3/5 481/3/5
f 485/2/5 484/2/5 483/2/5
f 486/2/5 484/2/5 485/2/5
f 487/3/6 488/3/6 489/3/6
f 489/3/6 488/3/6 490/3/6
f 487/3/6 489/3/6 491/3/6
f 490/3/6 488/3/6 492/3/6
f 487/3/6 491/3/6 493/3/6
f 491/3/6 492/3/6 493/3/6
f 492/3/6 488/3/6 494/3/6
f 493/3/6 492/3/6 494/3/6
f 495/3/6 496/3/6 497/3/6
f 497/3/6 496/3/6 498/3/6
f 495/3/6 497/3/6 499/3/6
f 498/3/6 496/3/6 500/3/6
f 495/3/6 499/3/6 501/3/6
f 499/3/6 500/3/6 501/3/6
f 500/3/6 496/3/6 502/3/6
f 501/3/6 500/3/6 502/3/6
f 503/2/6 504/2/6 505/2/6
f 505/2/6 504/2/6 506/2/6
f 507/3/6 508/3/6 509/3/6
f 509/3/6 508/3/6 510/3/6
f 511/3/6 512/3/6 513/3/6
f 513/3/6 512/3/6 514/3/6
f 515/2/6 516/2/6 517/2/6
f 517/2/6 516/2/6 518/2/6
f 519/2/6 520/2/6 521/2/6
f 521/2/6 520/2/6 522/2/6
f 523/2/6 524/2/6 525/2/6
f 525/2/6 524/2/6 526/2/6
f 527/2/6 528/2/6 529/2/6
f 529/2/6 528/2/6 530/2/6
f 531/2/6 532/2/6 533/2/6
f 533/2/6 532/2/6 534/2/6
f 535/2/6 536/2/6 537/2/6
f 537/2/6 536/2/6 538/2/6
f 539/2/6 540/2/6 541/2/6
f 541/2/6 540/2/6 542/2/6
f 543/2/6 544/2/6 545/2/6
f 545/2/6 544/2/6 546/2/6
f 547/2/6 548/2/6 549/2/6
f 549/2/6 548/2/6 550/2/6
f 551/2/6 552/2/6 553/2/6
f 553/2/6 552/2/6 554/2/6
f 555/2/6 556/2/6 557/2/6
f 557/2/6 556/2/6 558/2/6
f 559/2/6 560/2/6 561/2/6
f 561/2/6 560/2/6 562/2/6
f 563/2/6 564/2/6 565/2/6
f 565/2/6 564/2/6 566/2/6
f 567/2/6 568/2/6 570/2/6
f 568/3/6 569/3/6 571/3/6
f 570/2/6 568/2/6 571/2/6
f 571/3/6 569/3/6 572/3/6
